<svg width="25" height="24" viewBox="0 0 25 24" fill="none" xmlns="http://www.w3.org/2000/svg">
<path d="M12.5 18.275L8.35002 20.775C8.16668 20.8917 7.97502 20.9417 7.77501 20.925C7.57501 20.9083 7.40001 20.8417 7.25002 20.725C7.10001 20.6083 6.98335 20.4625 6.90002 20.2875C6.81668 20.1125 6.80002 19.9167 6.85002 19.7L7.95002 14.975L4.27502 11.8C4.10835 11.65 4.00418 11.4792 3.96252 11.2875C3.92085 11.0958 3.93335 10.9083 4.00002 10.725C4.06668 10.5417 4.16668 10.3917 4.30002 10.275C4.43335 10.1583 4.61668 10.0833 4.85002 10.05L9.70002 9.62501L11.575 5.17501C11.6583 4.97501 11.7875 4.82501 11.9625 4.72501C12.1375 4.62501 12.3167 4.57501 12.5 4.57501C12.6833 4.57501 12.8625 4.62501 13.0375 4.72501C13.2125 4.82501 13.3417 4.97501 13.425 5.17501L15.3 9.62501L20.15 10.05C20.3833 10.0833 20.5667 10.1583 20.7 10.275C20.8333 10.3917 20.9333 10.5417 21 10.725C21.0667 10.9083 21.0792 11.0958 21.0375 11.2875C20.9958 11.4792 20.8917 11.65 20.725 11.8L17.05 14.975L18.15 19.7C18.2 19.9167 18.1833 20.1125 18.1 20.2875C18.0167 20.4625 17.9 20.6083 17.75 20.725C17.6 20.8417 17.425 20.9083 17.225 20.925C17.025 20.9417 16.8333 20.8917 16.65 20.775L12.5 18.275Z" fill="#EEEEEE"/>
</svg>
