<svg width="25" height="24" viewBox="0 0 25 24" fill="none" xmlns="http://www.w3.org/2000/svg">
<path d="M9.325 12L10.8 10.525C11 10.325 11.1 10.0917 11.1 9.825C11.1 9.55833 11 9.325 10.8 9.125C10.6 8.925 10.3625 8.825 10.0875 8.825C9.8125 8.825 9.575 8.925 9.375 9.125L7.2 11.3C7.1 11.4 7.02917 11.5083 6.9875 11.625C6.94583 11.7417 6.925 11.8667 6.925 12C6.925 12.1333 6.94583 12.2583 6.9875 12.375C7.02917 12.4917 7.1 12.6 7.2 12.7L9.375 14.875C9.575 15.075 9.8125 15.175 10.0875 15.175C10.3625 15.175 10.6 15.075 10.8 14.875C11 14.675 11.1 14.4417 11.1 14.175C11.1 13.9083 11 13.675 10.8 13.475L9.325 12ZM15.675 12L14.2 13.475C14 13.675 13.9 13.9083 13.9 14.175C13.9 14.4417 14 14.675 14.2 14.875C14.4 15.075 14.6375 15.175 14.9125 15.175C15.1875 15.175 15.425 15.075 15.625 14.875L17.8 12.7C17.9 12.6 17.9708 12.4917 18.0125 12.375C18.0542 12.2583 18.075 12.1333 18.075 12C18.075 11.8667 18.0542 11.7417 18.0125 11.625C17.9708 11.5083 17.9 11.4 17.8 11.3L15.625 9.125C15.525 9.025 15.4125 8.95 15.2875 8.9C15.1625 8.85 15.0375 8.825 14.9125 8.825C14.7875 8.825 14.6625 8.85 14.5375 8.9C14.4125 8.95 14.3 9.025 14.2 9.125C14 9.325 13.9 9.55833 13.9 9.825C13.9 10.0917 14 10.325 14.2 10.525L15.675 12ZM5.5 21C4.95 21 4.47917 20.8042 4.0875 20.4125C3.69583 20.0208 3.5 19.55 3.5 19V5C3.5 4.45 3.69583 3.97917 4.0875 3.5875C4.47917 3.19583 4.95 3 5.5 3H19.5C20.05 3 20.5208 3.19583 20.9125 3.5875C21.3042 3.97917 21.5 4.45 21.5 5V19C21.5 19.55 21.3042 20.0208 20.9125 20.4125C20.5208 20.8042 20.05 21 19.5 21H5.5Z" fill="#EEEEEE"/>
</svg>
