<svg width="25" height="24" viewBox="0 0 25 24" fill="none" xmlns="http://www.w3.org/2000/svg">
<path d="M7.5 17V7C7.5 6.71667 7.59583 6.47917 7.7875 6.2875C7.97917 6.09583 8.21667 6 8.5 6C8.78333 6 9.02083 6.09583 9.2125 6.2875C9.40417 6.47917 9.5 6.71667 9.5 7V17C9.5 17.2833 9.40417 17.5208 9.2125 17.7125C9.02083 17.9042 8.78333 18 8.5 18C8.21667 18 7.97917 17.9042 7.7875 17.7125C7.59583 17.5208 7.5 17.2833 7.5 17ZM11.5 21V3C11.5 2.71667 11.5958 2.47917 11.7875 2.2875C11.9792 2.09583 12.2167 2 12.5 2C12.7833 2 13.0208 2.09583 13.2125 2.2875C13.4042 2.47917 13.5 2.71667 13.5 3V21C13.5 21.2833 13.4042 21.5208 13.2125 21.7125C13.0208 21.9042 12.7833 22 12.5 22C12.2167 22 11.9792 21.9042 11.7875 21.7125C11.5958 21.5208 11.5 21.2833 11.5 21ZM3.5 13V11C3.5 10.7167 3.59583 10.4792 3.7875 10.2875C3.97917 10.0958 4.21667 10 4.5 10C4.78333 10 5.02083 10.0958 5.2125 10.2875C5.40417 10.4792 5.5 10.7167 5.5 11V13C5.5 13.2833 5.40417 13.5208 5.2125 13.7125C5.02083 13.9042 4.78333 14 4.5 14C4.21667 14 3.97917 13.9042 3.7875 13.7125C3.59583 13.5208 3.5 13.2833 3.5 13ZM15.5 17V7C15.5 6.71667 15.5958 6.47917 15.7875 6.2875C15.9792 6.09583 16.2167 6 16.5 6C16.7833 6 17.0208 6.09583 17.2125 6.2875C17.4042 6.47917 17.5 6.71667 17.5 7V17C17.5 17.2833 17.4042 17.5208 17.2125 17.7125C17.0208 17.9042 16.7833 18 16.5 18C16.2167 18 15.9792 17.9042 15.7875 17.7125C15.5958 17.5208 15.5 17.2833 15.5 17ZM19.5 13V11C19.5 10.7167 19.5958 10.4792 19.7875 10.2875C19.9792 10.0958 20.2167 10 20.5 10C20.7833 10 21.0208 10.0958 21.2125 10.2875C21.4042 10.4792 21.5 10.7167 21.5 11V13C21.5 13.2833 21.4042 13.5208 21.2125 13.7125C21.0208 13.9042 20.7833 14 20.5 14C20.2167 14 19.9792 13.9042 19.7875 13.7125C19.5958 13.5208 19.5 13.2833 19.5 13Z" fill="#EEEEEE"/>
</svg>
