<svg width="40" height="40" viewBox="0 0 40 40" fill="none" xmlns="http://www.w3.org/2000/svg">
<g clip-path="url(#clip0_201_88)">
<path fill-rule="evenodd" clip-rule="evenodd" d="M19.9964 0C18.216 4.36499 17.1422 7.2202 15.16 11.4554C16.3753 12.7437 17.8671 14.2439 20.2897 15.9383C17.6852 14.8666 15.9085 13.7905 14.5808 12.6739C12.044 17.9675 8.06946 25.5078 0.00390625 40C6.34316 36.3402 11.2572 34.084 15.8369 33.223C15.6403 32.3772 15.5285 31.4623 15.5361 30.5077L15.5436 30.3046C15.6442 26.2432 17.7569 23.12 20.2597 23.3321C22.7624 23.5441 24.7078 27.0104 24.6072 31.0718C24.5882 31.8361 24.5021 32.5712 24.3514 33.2531C28.8814 34.1392 33.7429 36.3897 39.9964 40C38.7634 37.7298 37.6627 35.6835 36.6117 33.7345C34.9561 32.4513 33.2293 30.7812 29.7068 28.9733C32.128 29.6024 33.8615 30.3282 35.2127 31.1395C24.5263 11.2435 23.661 8.59971 19.9964 0Z" fill="#EEEEEE"/>
</g>
<defs>
<clipPath id="clip0_201_88">
<rect width="40" height="40" fill="white"/>
</clipPath>
</defs>
</svg>
