<svg xmlns="http://www.w3.org/2000/svg" xmlns:xlink="http://www.w3.org/1999/xlink" viewBox="0,0,256,256" width="50px" height="50px" fill-rule="nonzero"><g fill="#eeeeee" fill-rule="nonzero" stroke="none" stroke-width="1" stroke-linecap="butt" stroke-linejoin="miter" stroke-miterlimit="10" stroke-dasharray="" stroke-dashoffset="0" font-family="none" font-weight="none" font-size="none" text-anchor="none" style="mix-blend-mode: normal"><g transform="scale(5.12,5.12)"><path d="M25,3c-12.15,0 -22,9.85 -22,22c0,12.15 9.85,22 22,22c12.15,0 22,-9.85 22,-22c0,-12.15 -9.85,-22 -22,-22zM38,18h2v8h-2zM14.04883,20.89844c0.475,0 0.94625,0.07028 1.40625,0.23828c1.246,0.455 1.9998,1.3918 2.3418,2.7168c0.14,0.543 0.19717,1.09713 0.20117,1.70313c-0.01,0.812 -0.12219,1.64788 -0.49219,2.42188c-0.565,1.183 -1.49461,1.84206 -2.72461,2.03906c-0.28,0.046 -0.55889,0.07031 -0.83789,0.07031c-0.459,0 -0.91528,-0.0658 -1.36328,-0.2168c-1.178,-0.397 -1.91564,-1.26256 -2.30664,-2.47656c-0.254,-0.79 -0.31395,-1.60269 -0.25195,-2.42969c0.061,-0.809 0.25016,-1.58134 0.66016,-2.27734c0.589,-1.001 1.45673,-1.55761 2.55273,-1.72461c0.272,-0.041 0.54345,-0.06445 0.81445,-0.06445zM23.26367,20.90625c0.048,0 0.09553,-0.001 0.14453,0c0.766,0.014 1.50652,0.1755 2.22852,0.4375c0.048,0.017 0.09494,0.02542 0.08594,0.10742c-0.064,0.567 -0.20241,1.111 -0.44141,1.625c-0.005,0.01 -0.01172,0.01953 -0.01172,0.01953c-0.364,-0.11 -0.71041,-0.23341 -1.06641,-0.31641c-0.243,-0.056 -0.48838,-0.08984 -0.73437,-0.08984c-0.207,0 -0.41314,0.02317 -0.61914,0.07617c-0.237,0.062 -0.45002,0.16955 -0.54102,0.43555c-0.121,0.352 -0.00373,0.70852 0.32227,0.85352c0.356,0.159 0.7297,0.2713 1.0957,0.4043c0.321,0.117 0.65089,0.21547 0.96289,0.35547c0.829,0.372 1.24078,1.05809 1.30078,1.99609c0.051,0.788 -0.12767,1.4968 -0.63867,2.0918c-0.443,0.514 -1.00686,0.81405 -1.63086,0.99805c-0.458,0.135 -0.92458,0.18164 -1.39258,0.18164c-0.227,0 -0.45269,-0.01034 -0.67969,-0.02734c-0.602,-0.044 -1.18205,-0.19706 -1.74805,-0.41406c-0.063,-0.024 -0.08512,-0.053 -0.07812,-0.125c0.06,-0.58 0.20664,-1.13402 0.43164,-1.66602c0.007,-0.018 0.0153,-0.03445 0.0293,-0.06445c0.042,0.016 0.08305,0.02892 0.12305,0.04492c0.59,0.235 1.19327,0.39063 1.82227,0.39063c0.062,0 0.12355,-0.00186 0.18555,-0.00586c0.32,-0.016 0.63292,-0.06742 0.91992,-0.23242c0.384,-0.221 0.52773,-0.54789 0.42773,-0.96289c-0.039,-0.16 -0.11391,-0.29814 -0.25391,-0.36914c-0.229,-0.116 -0.46213,-0.2285 -0.70312,-0.3125c-0.434,-0.153 -0.8785,-0.27664 -1.3125,-0.43164c-0.321,-0.115 -0.60814,-0.3022 -0.86914,-0.5332c-0.365,-0.323 -0.53766,-0.74842 -0.59766,-1.23242c-0.068,-0.547 -0.04017,-1.08661 0.17383,-1.59961c0.286,-0.687 0.80417,-1.10623 1.45117,-1.36523c0.52,-0.209 1.06328,-0.26953 1.61328,-0.26953zM29.07031,21.00781c0.367,0 0.73547,0.03256 1.10547,0.10156v0.1582c0.001,1.592 -0.00519,3.18339 0.00781,4.77539c0.003,0.321 0.05305,0.64794 0.12305,0.96094c0.141,0.631 0.52919,0.98241 1.11719,1.06641c0.157,0.022 0.3147,0.0332 0.4707,0.0332c0.265,0 0.52802,-0.02994 0.79102,-0.08594c0.095,-0.02 0.125,-0.05897 0.125,-0.16797c-0.003,-2.195 -0.00195,-4.38898 -0.00195,-6.58398v-0.15625c0.365,-0.069 0.72589,-0.10156 1.08789,-0.10156c0.365,0 0.73061,0.03356 1.09961,0.10156v0.12695c0,2.727 -0.00105,5.45464 0.00195,8.18164c0,0.097 -0.02542,0.13216 -0.10742,0.16016c-0.956,0.32 -1.92792,0.50391 -2.91992,0.50391c-0.192,0 -0.38413,-0.00553 -0.57812,-0.01953c-0.515,-0.038 -1.03148,-0.08916 -1.52148,-0.28516c-0.927,-0.37 -1.44994,-1.12977 -1.71094,-2.13477c-0.154,-0.592 -0.19041,-1.2005 -0.19141,-1.8125c-0.003,-1.537 0,-3.07433 0,-4.61133c0,-0.034 0.00191,-0.06837 0.00391,-0.10937c0.367,-0.068 0.73266,-0.10156 1.09766,-0.10156zM13.97266,22.78711c-0.058,0 -0.11583,0.00281 -0.17383,0.00781c-0.501,0.039 -0.89409,0.28067 -1.12109,0.76367c-0.104,0.222 -0.18719,0.46117 -0.24219,0.70117c-0.151,0.661 -0.14794,1.33291 -0.08594,2.00391c0.037,0.406 0.12283,0.80092 0.29883,1.16992c0.166,0.347 0.40867,0.60556 0.76367,0.72656c0.194,0.066 0.38899,0.09961 0.58399,0.09961c0.203,0 0.40542,-0.03637 0.60742,-0.10937c0.457,-0.165 0.70437,-0.53814 0.85938,-0.99414c0.18,-0.53 0.21856,-1.08298 0.22656,-1.70898c-0.006,-0.127 -0.01134,-0.32162 -0.02734,-0.51562c-0.037,-0.462 -0.11445,-0.91399 -0.31445,-1.33398c-0.201,-0.422 -0.51894,-0.69144 -0.96094,-0.77344c-0.136,-0.024 -0.27606,-0.03711 -0.41406,-0.03711zM38,28h2v2h-2z"></path></g></g></svg>