<?xml version="1.0" encoding="UTF-8" standalone="no"?>
<svg
   width="512"
   height="512"
   version="1.1"
   id="svg3"
   xmlns="http://www.w3.org/2000/svg"
   xmlns:svg="http://www.w3.org/2000/svg"
   xmlns:rdf="http://www.w3.org/1999/02/22-rdf-syntax-ns#"
   xmlns:cc="http://creativecommons.org/ns#"
   xmlns:dc="http://purl.org/dc/elements/1.1/">
  <defs
     id="defs3" />
  <title
     id="title1">AniList logo</title>
  <desc
     id="desc1">Anime and manga tracking website</desc>
  <path
     d="M 321.92,323.27 V 136.6 c 0,-10.698 -5.887,-16.602 -16.558,-16.602 h -36.433 c -10.672,0 -16.561,5.904 -16.561,16.602 v 88.651 c 0,2.497 23.996,14.089 24.623,16.541 18.282,71.61 3.972,128.92 -13.359,131.6 28.337,1.405 31.455,15.064 10.348,5.731 3.229,-38.209 15.828,-38.134 52.049,-1.406 0.31,0.317 7.427,15.282 7.87,15.282 h 85.545 c 10.672,0 16.558,-5.9 16.558,-16.6 v -36.524 c 0,-10.698 -5.886,-16.602 -16.558,-16.602 z"
     fill="#02a9ff"
     id="path2"
     style="fill:#eeeeee;fill-opacity:1" />
  <path
     d="M 170.68,120 74.999,393 h 74.338 l 16.192,-47.222 h 80.96 L 262.315,393 h 73.968 L 240.969,120 Z m 11.776,165.28 23.183,-75.629 25.393,75.629 z"
     fill="#fefefe"
     id="path3"
     style="fill:#eeeeee;fill-opacity:1" />
  <metadata
     id="metadata3">
    <rdf:RDF>
      <cc:Work
         rdf:about="">
        <dc:title>AniList logo</dc:title>
      </cc:Work>
    </rdf:RDF>
  </metadata>
</svg>
